<mxfile host="app.diagrams.net" modified="2024-07-04T07:32:52.984Z" agent="Mozilla/5.0 (Macintosh; Intel Mac OS X 10_15_7) AppleWebKit/537.36 (KHTML, like Gecko) Chrome/126.0.0.0 Safari/537.36" version="24.6.4" etag="Y4G90IdYrX8MVl-sxo7R" type="github">
  <diagram name="第 1 页" id="7Y7XBQ39iw17WSp41UZz">
    <mxGraphModel>
      <root>
        <mxCell id="0" />
        <mxCell id="1" parent="0" />
      </root>
    </mxGraphModel>
  </diagram>
</mxfile>
